<svg width="69" height="71" viewBox="0 0 69 71" fill="none" xmlns="http://www.w3.org/2000/svg">
<rect y="2" width="69" height="69" rx="20" fill="#D63D2C"/>
<path d="M27.4295 63.8412C26.5471 63.9968 25.6795 64.0523 24.8268 64.0077C24.0483 64.015 23.0844 63.8925 21.9351 63.6402C20.4485 63.3175 19.2678 62.5184 18.393 61.2429C17.5071 59.9044 16.8919 58.2582 16.5474 56.3043C16.1362 53.9723 16.0587 51.3215 16.3149 48.3519C16.6342 45.3712 17.1685 42.32 17.9178 39.1985C18.8007 35.7285 19.8448 32.0675 21.0503 28.2157C22.3187 24.3527 23.8003 20.7771 25.4951 17.4889C27.2529 14.1895 29.2497 11.6929 31.4855 9.99888C32.1121 9.49847 32.8555 9.10744 33.7156 8.82579C34.5647 8.48112 35.4304 8.23099 36.3128 8.0754C38.0145 7.77534 39.6662 7.74405 41.2678 7.98155C41.8684 8.07061 42.1964 8.27271 42.252 8.58785C42.2854 8.77694 42.1407 9.06239 41.8181 9.44421C41.4325 9.83714 40.2755 11.5683 38.3473 14.6378C36.4709 17.6332 34.5332 21.9391 32.5341 27.5555C32.319 28.1783 32.0167 29.044 31.6273 30.1524C31.2897 31.1868 30.9263 32.2582 30.5368 33.3666C30.2104 34.464 29.9248 35.4242 29.68 36.2472C29.4241 37.0072 29.2961 37.3871 29.2961 37.3871C30.5125 34.7031 31.8142 32.1341 33.2011 29.68C34.6511 27.2147 35.9619 25.0665 37.1337 23.2352C38.2944 21.3408 39.1084 20.06 39.5756 19.3928C40.0132 18.9257 40.7992 18.5921 41.9337 18.3921C43.2572 18.1587 44.6846 18.3294 46.2157 18.9043C47.7468 19.4792 48.7012 20.8381 49.0791 22.981C49.3014 24.2416 49.2214 25.8154 48.8393 27.7024C48.4572 29.5894 47.9805 31.4931 47.4093 33.4135C46.827 35.2708 46.3633 36.8798 46.0183 38.2403C45.9478 38.5777 45.7346 39.3951 45.3785 40.6927C45.0224 41.9902 44.6681 43.4824 44.3157 45.1693C43.9632 46.8561 43.6738 48.5318 43.4474 50.1964C43.273 51.7869 43.2746 53.0863 43.4524 54.0948C43.6747 55.3553 44.1955 55.9133 45.0149 55.7689C45.5821 55.6688 46.2143 55.1999 46.9114 54.3622C47.5974 53.4614 48.2148 52.5402 48.7637 51.5985C49.3644 50.5828 49.7835 49.8265 50.0208 49.3298C51.0221 47.2686 51.8751 45.1036 52.5798 42.8347C53.3476 40.5548 53.9559 38.6604 54.4047 37.1515C54.579 36.6659 54.8552 36.3897 55.2334 36.323C55.6746 36.2452 56.0861 36.3676 56.4679 36.6902C56.8497 37.0128 56.959 37.4485 56.7958 37.9971C56.143 40.1918 55.2881 42.7146 54.2311 45.5655C53.226 48.3422 52.0875 50.915 50.8155 53.2839C49.8328 55.0818 48.6332 56.7555 47.2167 58.3051C45.7892 59.7915 44.1615 60.6959 42.3337 61.0182C39.6865 61.485 37.6827 60.9935 36.3223 59.5437C35.0249 58.0828 34.1428 56.0287 33.6761 53.3816C33.3093 51.3017 33.2262 49.1717 33.4267 46.9918C33.6902 44.8007 34.0168 42.5986 34.4064 40.3853C34.8257 37.9718 35.2523 35.7845 35.6864 33.8234C36.1834 31.8511 36.597 30.5109 36.9271 29.8028C35.7702 30.9816 34.5187 32.7295 33.1726 35.0464C31.8784 37.2893 30.7028 39.8361 29.6457 42.687C28.5887 45.5378 27.7894 48.3757 27.2477 51.2007C26.706 54.0257 26.6352 56.5727 27.0353 58.8417C27.3132 60.4174 27.871 61.5538 28.7088 62.2509C28.9312 62.4066 29.0591 62.579 29.0924 62.7681C29.1813 63.2723 28.627 63.63 27.4295 63.8412Z" fill="white"/>
</svg>
